<svg xmlns="http://www.w3.org/2000/svg" width="780" height="230" viewBox="0 0 780 230" role="img" aria-label="YIN TECH light background logo">
<title>YIN TECH light background logo</title>
<style>
.logo-word { font-family: Montserrat, Inter, Arial, sans-serif; font-weight: 600; letter-spacing: 0.12em; }
.tagline { font-family: Inter, Arial, sans-serif; font-weight: 400; letter-spacing: 0.01em; }
.label { font-family: Inter, Arial, sans-serif; font-weight: 600; letter-spacing: 0.06em; }
.body { font-family: Inter, Arial, sans-serif; font-weight: 400; }
</style>

<rect x="10" y="10" width="760" height="210" rx="22" fill="#F7F4EE" stroke="#DFDAD1"/><path d="M62 35 H138 Q165 35 165 62 V78" transform="translate(42,45) scale(0.65)" fill="none" stroke="#24313F" stroke-width="9" stroke-linecap="round" stroke-linejoin="round"/>
<path d="M35 78 V62 Q35 35 62 35" transform="translate(42,45) scale(0.65)" fill="none" stroke="#24313F" stroke-width="9" stroke-linecap="round" stroke-linejoin="round"/>
<path d="M35 122 V138 Q35 165 62 165 H77" transform="translate(42,45) scale(0.65)" fill="none" stroke="#24313F" stroke-width="9" stroke-linecap="round" stroke-linejoin="round"/>
<path d="M123 165 H138 Q165 165 165 138 V122" transform="translate(42,45) scale(0.65)" fill="none" stroke="#24313F" stroke-width="9" stroke-linecap="round" stroke-linejoin="round"/>
<path d="M72 67 L100 96 L128 67" transform="translate(42,45) scale(0.65)" fill="none" stroke="#6F8F7D" stroke-width="15" stroke-linecap="round" stroke-linejoin="round"/>
<path d="M100 96 V142" transform="translate(42,45) scale(0.65)" fill="none" stroke="#6F8F7D" stroke-width="15" stroke-linecap="round"/>
<circle cx="64.75" cy="110.00" r="5.53" fill="#D8B98C"/>
<circle cx="107.00" cy="152.25" r="5.53" fill="#24313F"/>
<circle cx="149.25" cy="110.00" r="5.53" fill="#B86B5E"/><text x="210" y="108" class="logo-word" font-size="48" fill="#24313F" text-anchor="start">YIN TECH</text><text x="212" y="146" class="tagline" font-size="19" fill="#6F8F7D" text-anchor="start">Managed IT, made simple.</text>
</svg>