<svg xmlns="http://www.w3.org/2000/svg" width="248" height="248" viewBox="0 0 248 248" role="img" aria-label="YIN TECH social squircle icon">
<title>YIN TECH social squircle icon</title>
<style>
.logo-word { font-family: Montserrat, Inter, Arial, sans-serif; font-weight: 600; letter-spacing: 0.12em; }
.tagline { font-family: Inter, Arial, sans-serif; font-weight: 400; letter-spacing: 0.01em; }
.label { font-family: Inter, Arial, sans-serif; font-weight: 600; letter-spacing: 0.06em; }
.body { font-family: Inter, Arial, sans-serif; font-weight: 400; }
</style>

<rect x="20.32" y="20.32" width="207.36" height="207.36" rx="38.88" fill="#24313F"/>
<path d="M62 35 H138 Q165 35 165 62 V78" transform="translate(16,16) scale(1.08)" fill="none" stroke="#24313F" stroke-width="9" stroke-linecap="round" stroke-linejoin="round"/>
<path d="M35 78 V62 Q35 35 62 35" transform="translate(16,16) scale(1.08)" fill="none" stroke="#24313F" stroke-width="9" stroke-linecap="round" stroke-linejoin="round"/>
<path d="M35 122 V138 Q35 165 62 165 H77" transform="translate(16,16) scale(1.08)" fill="none" stroke="#24313F" stroke-width="9" stroke-linecap="round" stroke-linejoin="round"/>
<path d="M123 165 H138 Q165 165 165 138 V122" transform="translate(16,16) scale(1.08)" fill="none" stroke="#24313F" stroke-width="9" stroke-linecap="round" stroke-linejoin="round"/>
<path d="M72 67 L100 96 L128 67" transform="translate(16,16) scale(1.08)" fill="none" stroke="#6F8F7D" stroke-width="15" stroke-linecap="round" stroke-linejoin="round"/>
<path d="M100 96 V142" transform="translate(16,16) scale(1.08)" fill="none" stroke="#6F8F7D" stroke-width="15" stroke-linecap="round"/>
<circle cx="53.80" cy="124.00" r="9.18" fill="#D8B98C"/>
<circle cx="124.00" cy="194.20" r="9.18" fill="#24313F"/>
<circle cx="194.20" cy="124.00" r="9.18" fill="#B86B5E"/>
</svg>